# xmcd
#
# Track frame offsets:
#	150
#	11305
#	26802
#	39683
#	51625
#	66195
#	78420
#	89236
#	99732
#	112320
#	126683
#	137523
#	148934
#	164071
#
# Disc length: 2357 seconds
#
# Revision: 3
# Processed by: cddbd v1.5.2PL0 Copyright (c) Steve Scherf et al.
# Submitted via: EasyCDDAExtractor 16.0.6.1
#
DISCID=e009330e
DTITLE=Διονυσίου Στράτος - Ο Στρ. Διονυσίου τραγουδάει Άκη Πάνου
DYEAR=2008
DGENRE=Λαϊκή
TTITLE0=Ήταν ψεύτικα
TTITLE1=Να είχα το κουράγιο [στ. Αν. Μπακιρτζή]
TTITLE2=Αχαριστία
TTITLE3=Εγώ καλά σού τά 'λεγα
TTITLE4=Στον σταθμό του Μονάχου
TTITLE5=Φεύγω
TTITLE6=Θα ρίξω ροδοζάχαρη
TTITLE7=Του κόσμου το περίγελο
TTITLE8=Πήρα τα μάτια μου
TTITLE9=Γιατί καλέ γειτόνισσα
TTITLE10=Ομορφιά
TTITLE11=Χαρά σ' αυτόν που σ' έχει [στ. Αν. Μπακιρτζή]
TTITLE12=Και τι δεν κάνω
TTITLE13=Σε λίγο
EXTD=
EXTT0=
EXTT1=
EXTT2=
EXTT3=
EXTT4=
EXTT5=
EXTT6=
EXTT7=
EXTT8=
EXTT9=
EXTT10=
EXTT11=
EXTT12=
EXTT13=
PLAYORDER=
